<svg width="20" height="20" viewBox="0 0 20 20" fill="none" xmlns="http://www.w3.org/2000/svg">
<path d="M10 2.5H6C4.89543 2.5 4 3.39543 4 4.5V16.6315C4 17.4302 4.89014 17.9066 5.5547 17.4635L8.8906 15.2396C9.5624 14.7917 10.4376 14.7917 11.1094 15.2396L14.4453 17.4635C15.1099 17.9066 16 17.4302 16 16.6315V10" stroke="black" stroke-width="1.2" stroke-linejoin="round"/>
<path d="M10 6.5L10.3884 7.48484C10.5917 8.00028 10.9997 8.4083 11.5152 8.61159L12.5 9L11.5152 9.38841C10.9997 9.5917 10.5917 9.99972 10.3884 10.5152L10 11.5L9.61159 10.5152C9.4083 9.99972 9.00028 9.5917 8.48484 9.38841L7.5 9L8.48484 8.61159C9.00028 8.4083 9.4083 8.00028 9.61159 7.48484L10 6.5Z" stroke="black" stroke-width="1.2" stroke-linejoin="round"/>
<path d="M15 2L15 8" stroke="black" stroke-width="1.2"/>
<path d="M18 5L12 5" stroke="black" stroke-width="1.2"/>
</svg>
