<svg width="20" height="20" viewBox="0 0 20 20" fill="none" xmlns="http://www.w3.org/2000/svg">
<path d="M11 2.5C9.5 2.5 5 3 5 8L3.3618 11.2764C3.19558 11.6088 3.43733 12 3.80902 12H5.5V12.5C5.5 13.8807 6.61929 15 8 15V17.5H14V14C16 13 16.5 11.5 16.5 9.5" stroke="black" stroke-width="1.2" stroke-linejoin="round"/>
<path d="M14.5 2L14.8884 2.98484C15.0917 3.50028 15.4997 3.9083 16.0152 4.11159L17 4.5L16.0152 4.88841C15.4997 5.0917 15.0917 5.49972 14.8884 6.01516L14.5 7L14.1116 6.01516C13.9083 5.49972 13.5003 5.0917 12.9848 4.88841L12 4.5L12.9848 4.11159C13.5003 3.9083 13.9083 3.50028 14.1116 2.98484L14.5 2Z" stroke="black" stroke-width="1.2" stroke-linejoin="round"/>
</svg>
