<svg width="20" height="20" viewBox="0 0 20 20" fill="none" xmlns="http://www.w3.org/2000/svg">
<g clip-path="url(#clip0_970_48)">
<path d="M7.50003 7.5H12.5M7.50003 7.5V12.5M7.50003 7.5H5.5C4.39543 7.5 3.5 6.60457 3.5 5.5C3.5 4.39543 4.39543 3.5 5.5 3.5C6.60457 3.5 7.5 4.39543 7.5 5.5L7.50003 7.5ZM12.5 7.5V12.5M12.5 7.5H14.5C15.6046 7.5 16.5 6.60457 16.5 5.5C16.5 4.39543 15.6046 3.5 14.5 3.5C13.3954 3.5 12.5 4.39543 12.5 5.5L12.5 7.5ZM12.5 12.5H7.50003M12.5 12.5H14.5C15.6046 12.5 16.5 13.3954 16.5 14.5C16.5 15.6046 15.6046 16.5 14.5 16.5C13.3954 16.5 12.5 15.6046 12.5 14.5L12.5 12.5ZM7.50003 12.5H5.5C4.39543 12.5 3.5 13.3954 3.5 14.5C3.5 15.6046 4.39543 16.5 5.5 16.5C6.60457 16.5 7.5 15.6046 7.5 14.5L7.50003 12.5Z" stroke="black" stroke-width="1.2"/>
</g>
<defs>
<clipPath id="clip0_970_48">
<rect width="20" height="20" fill="white"/>
</clipPath>
</defs>
</svg>
