<svg width="20" height="20" viewBox="0 0 20 20" fill="none" xmlns="http://www.w3.org/2000/svg">
<path d="M4 4.5C4 3.39543 4.89543 2.5 6 2.5H14C15.1046 2.5 16 3.39543 16 4.5V16.6315C16 17.4302 15.1099 17.9066 14.4453 17.4635L11.1094 15.2396C10.4376 14.7917 9.5624 14.7917 8.8906 15.2396L5.5547 17.4635C4.89014 17.9066 4 17.4302 4 16.6315V4.5Z" stroke="black" stroke-width="1.2" stroke-linejoin="round"/>
<path d="M10 6.5L10.3884 7.48484C10.5917 8.00028 10.9997 8.4083 11.5152 8.61159L12.5 9L11.5152 9.38841C10.9997 9.5917 10.5917 9.99972 10.3884 10.5152L10 11.5L9.61159 10.5152C9.4083 9.99972 9.00028 9.5917 8.48484 9.38841L7.5 9L8.48484 8.61159C9.00028 8.4083 9.4083 8.00028 9.61159 7.48484L10 6.5Z" stroke="black" stroke-width="1.2" stroke-linejoin="round"/>
</svg>
