<svg width="20" height="20" viewBox="0 0 20 20" fill="none" xmlns="http://www.w3.org/2000/svg">
<path d="M5 4C5 2.89543 5.89543 2 7 2H13C14.1046 2 15 2.89543 15 4V5.86762C15 6.57015 14.6314 7.22116 14.029 7.58261L11.029 9.3826C10.3956 9.76262 9.60437 9.76262 8.97101 9.38261L5.97101 7.58261C5.3686 7.22116 5 6.57014 5 5.86762V4Z" stroke="black" stroke-width="1.2" stroke-linejoin="round"/>
<path d="M5 16C5 17.1046 5.89543 18 7 18H13C14.1046 18 15 17.1046 15 16V14.1324C15 13.4299 14.6314 12.7788 14.029 12.4174L11.029 10.6174C10.3956 10.2374 9.60437 10.2374 8.97101 10.6174L5.97101 12.4174C5.3686 12.7788 5 13.4299 5 14.1324V16Z" stroke="black" stroke-width="1.2" stroke-linejoin="round"/>
</svg>
