<svg width="20" height="20" viewBox="0 0 20 20" fill="none" xmlns="http://www.w3.org/2000/svg">
<path d="M5 18C5.10674 16.5372 5.32676 15.2074 5.63759 14M12.4059 8.5C14.9745 7.80634 16.4427 6.89968 17.2245 6M17.2245 6C18.246 4.82447 18.0954 3.66088 17.6958 3C14.3058 3.14565 7.79152 5.63327 5.63759 14M17.2245 6C17.1013 8.5 14.6115 13.6 5.63759 14" stroke="black" stroke-width="1.2" stroke-linejoin="round"/>
<path d="M4.5 2L4.88841 2.98484C5.0917 3.50028 5.49972 3.9083 6.01516 4.11159L7 4.5L6.01516 4.88842C5.49972 5.0917 5.0917 5.49972 4.88841 6.01516L4.5 7L4.11159 6.01516C3.9083 5.49972 3.50028 5.0917 2.98484 4.88841L2 4.5L2.98484 4.11159C3.50028 3.9083 3.9083 3.50028 4.11159 2.98484L4.5 2Z" stroke="black" stroke-width="1.2" stroke-linejoin="round"/>
</svg>
