<svg width="20" height="20" viewBox="0 0 20 20" fill="none" xmlns="http://www.w3.org/2000/svg">
<path d="M10 3H6C4.89543 3 4 3.89543 4 5V15C4 16.1046 4.89543 17 6 17H14C15.1046 17 16 16.1046 16 15V10" stroke="black" stroke-width="1.2" stroke-linejoin="round"/>
<path d="M4 5C4 3.89543 4.89543 3 6 3H7V17H6C4.89543 17 4 16.1046 4 15V5Z" stroke="black" stroke-width="1.2" stroke-linejoin="round"/>
<path d="M14.5 2L14.8884 2.98484C15.0917 3.50028 15.4997 3.9083 16.0152 4.11159L17 4.5L16.0152 4.88841C15.4997 5.0917 15.0917 5.49972 14.8884 6.01516L14.5 7L14.1116 6.01516C13.9083 5.49972 13.5003 5.0917 12.9848 4.88841L12 4.5L12.9848 4.11159C13.5003 3.9083 13.9083 3.50028 14.1116 2.98484L14.5 2Z" stroke="black" stroke-width="1.2" stroke-linejoin="round"/>
</svg>
