<svg width="20" height="20" viewBox="0 0 20 20" fill="none" xmlns="http://www.w3.org/2000/svg">
<path d="M14.5 3L14.8884 3.98484C15.0917 4.50028 15.4997 4.9083 16.0152 5.11159L17 5.5L16.0152 5.88842C15.4997 6.0917 15.0917 6.49972 14.8884 7.01516L14.5 8L14.1116 7.01516C13.9083 6.49972 13.5003 6.0917 12.9848 5.88841L12 5.5L12.9848 5.11159C13.5003 4.9083 13.9083 4.50028 14.1116 3.98484L14.5 3Z" stroke="black" stroke-width="1.2" stroke-linejoin="round"/>
<path d="M8 7L8.77683 8.96968C9.18341 10.0006 9.99943 10.8166 11.0303 11.2232L13 12L11.0303 12.7768C9.99943 13.1834 9.18341 13.9994 8.77683 15.0303L8 17L7.22317 15.0303C6.81659 13.9994 6.00057 13.1834 4.96968 12.7768L3 12L4.96968 11.2232C6.00057 10.8166 6.81659 10.0006 7.22317 8.96968L8 7Z" stroke="black" stroke-width="1.2" stroke-linejoin="round"/>
</svg>
