<svg width="20" height="20" viewBox="0 0 20 20" fill="none" xmlns="http://www.w3.org/2000/svg">
<path d="M9.09695 10.3618C8.83636 9.58008 9.5801 8.83634 10.3619 9.09692L16.7808 11.2366C17.626 11.5183 17.7086 12.6812 16.9118 13.0797L14.6552 14.208C14.4617 14.3047 14.3047 14.4616 14.208 14.6552L13.0797 16.9117C12.6813 17.7086 11.5183 17.6259 11.2366 16.7807L9.09695 10.3618Z" stroke="black" stroke-width="1.2" stroke-linejoin="round"/>
<path d="M5.5 3L5.88841 3.98484C6.0917 4.50028 6.49972 4.9083 7.01516 5.11159L8 5.5L7.01516 5.88842C6.49972 6.0917 6.0917 6.49972 5.88841 7.01516L5.5 8L5.11159 7.01516C4.9083 6.49972 4.50028 6.0917 3.98484 5.88841L3 5.5L3.98484 5.11159C4.50028 4.9083 4.9083 4.50028 5.11159 3.98484L5.5 3Z" stroke="black" stroke-width="1.2" stroke-linejoin="round"/>
<path d="M11.7143 4H14C15.1046 4 16 4.89543 16 6V8.28571M4 11.7143V14C4 15.1046 4.89543 16 6 16H8.28571" stroke="black" stroke-width="1.2" stroke-linejoin="round"/>
</svg>
