<svg width="20" height="20" viewBox="0 0 20 20" fill="none" xmlns="http://www.w3.org/2000/svg">
<path d="M7.1377 3.61133L7.7259 3.72971C7.77025 3.50936 7.68772 3.28271 7.51208 3.14246C7.33643 3.00221 7.09713 2.97189 6.89206 3.06391L7.1377 3.61133ZM16.8613 11.3877L17.4495 11.506C17.4939 11.2857 17.4113 11.059 17.2357 10.9188C17.0601 10.7786 16.8208 10.7483 16.6157 10.8403L16.8613 11.3877ZM7.1377 3.61133L6.54949 3.49295C6.45135 3.98057 6.4 4.48461 6.4 5H7H7.6C7.6 4.56449 7.64337 4.13976 7.7259 3.72971L7.1377 3.61133ZM7 5H6.4C6.4 9.19736 9.80264 12.6 14 12.6V12V11.4C10.4654 11.4 7.6 8.53462 7.6 5H7ZM14 12V12.6C15.107 12.6 16.1583 12.3607 17.1069 11.9351L16.8613 11.3877L16.6157 10.8403C15.8167 11.1987 14.9324 11.4 14 11.4V12ZM16.8613 11.3877L16.2731 11.2694C15.6844 14.196 13.0993 16.4 10 16.4V17V17.6C13.6823 17.6 16.7504 14.9817 17.4495 11.506L16.8613 11.3877ZM10 17V16.4C6.46538 16.4 3.6 13.5346 3.6 10H3H2.4C2.4 14.1974 5.80264 17.6 10 17.6V17ZM3 10H3.6C3.6 7.39896 5.15221 5.15989 7.38333 4.15874L7.1377 3.61133L6.89206 3.06391C4.24581 4.25133 2.4 6.90886 2.4 10H3Z" fill="black"/>
</svg>
