<svg width="14" height="14" viewBox="0 0 14 14" fill="none" xmlns="http://www.w3.org/2000/svg">
<path d="M4.1377 0.611328L4.7259 0.729711C4.77025 0.509361 4.68772 0.282705 4.51208 0.142458C4.33643 0.00220972 4.09713 -0.0281053 3.89206 0.0639127L4.1377 0.611328ZM13.8613 8.3877L14.4495 8.50601C14.4939 8.28568 14.4113 8.05905 14.2357 7.91882C14.0601 7.77858 13.8208 7.74827 13.6157 7.84026L13.8613 8.3877ZM4.1377 0.611328L3.54949 0.492946C3.45135 0.980573 3.4 1.48461 3.4 2H4H4.6C4.6 1.56449 4.64337 1.13976 4.7259 0.729711L4.1377 0.611328ZM4 2H3.4C3.4 6.19736 6.80264 9.6 11 9.6V9V8.4C7.46538 8.4 4.6 5.53462 4.6 2H4ZM11 9V9.6C12.107 9.6 13.1583 9.3607 14.1069 8.93513L13.8613 8.3877L13.6157 7.84026C12.8167 8.19872 11.9324 8.4 11 8.4V9ZM13.8613 8.3877L13.2731 8.26938C12.6844 11.196 10.0993 13.4 7 13.4V14V14.6C10.6823 14.6 13.7504 11.9817 14.4495 8.50601L13.8613 8.3877ZM7 14V13.4C3.46538 13.4 0.6 10.5346 0.6 7H0H-0.6C-0.6 11.1974 2.80264 14.6 7 14.6V14ZM0 7H0.6C0.6 4.39896 2.15221 2.15989 4.38333 1.15874L4.1377 0.611328L3.89206 0.0639127C1.24581 1.25133 -0.6 3.90886 -0.6 7H0Z" fill="black"/>
</svg>
