<svg width="20" height="20" viewBox="0 0 20 20" fill="none" xmlns="http://www.w3.org/2000/svg">
<path d="M16 9C16 12.3137 13.3137 15 10 15C6.68629 15 4 12.3137 4 9C4 5.68629 6.68629 3 10 3" stroke="black" stroke-width="1.2"/>
<path d="M7 14L7.77208 16.3162C7.90819 16.7246 8.29033 17 8.72076 17H11.2792C11.7097 17 12.0918 16.7246 12.2279 16.3162L13 14" stroke="black" stroke-width="1.2"/>
<path d="M14.5 2L14.8884 2.98484C15.0917 3.50028 15.4997 3.9083 16.0152 4.11159L17 4.5L16.0152 4.88841C15.4997 5.0917 15.0917 5.49972 14.8884 6.01516L14.5 7L14.1116 6.01516C13.9083 5.49972 13.5003 5.0917 12.9848 4.88841L12 4.5L12.9848 4.11159C13.5003 3.9083 13.9083 3.50028 14.1116 2.98484L14.5 2Z" stroke="black" stroke-width="1.2" stroke-linejoin="round"/>
</svg>
