<svg width="20" height="20" viewBox="0 0 20 20" fill="none" xmlns="http://www.w3.org/2000/svg">
<path d="M15 9C15 12.3137 12.3137 15 9 15C5.68629 15 3 12.3137 3 9C3 5.68629 5.68629 3 9 3" stroke="black" stroke-width="1.2"/>
<path d="M13 13L17 17" stroke="black"/>
<path d="M13.5 2L13.8884 2.98484C14.0917 3.50028 14.4997 3.9083 15.0152 4.11159L16 4.5L15.0152 4.88841C14.4997 5.0917 14.0917 5.49972 13.8884 6.01516L13.5 7L13.1116 6.01516C12.9083 5.49972 12.5003 5.0917 11.9848 4.88841L11 4.5L11.9848 4.11159C12.5003 3.9083 12.9083 3.50028 13.1116 2.98484L13.5 2Z" stroke="black" stroke-width="1.2" stroke-linejoin="round"/>
</svg>
